<svg width="18" height="14" viewBox="0 0 18 14" fill="none" xmlns="http://www.w3.org/2000/svg">
<path d="M0.99979 7.47259H11.8396H15.7595H16.9995C17.2766 7.47259 17.4996 7.24619 17.4996 6.96881C17.4996 6.69144 17.2766 6.46504 16.9995 6.46504H15.7593H11.8396H0.99979C0.72272 6.46504 0.49968 6.69144 0.49968 6.96881C0.49968 7.24619 0.722721 7.47259 0.99979 7.47259ZM0.999718 1.97514H2.23992H6.15958H16.9994C17.2764 1.97514 17.4995 1.74874 17.4995 1.47136C17.4995 1.1939 17.2763 0.967871 16.9994 0.967871H6.15951H2.23963H0.999718C0.722739 0.967871 0.499609 1.1939 0.499609 1.47136C0.499609 1.74874 0.722648 1.97514 0.999718 1.97514ZM0.999718 12.9699H5.83979H9.75967H16.9994C17.2763 12.9699 17.4995 12.7439 17.4995 12.4664C17.4995 12.189 17.2764 11.9626 16.9994 11.9626H9.75946H5.83979H0.999718C0.722648 11.9626 0.499609 12.189 0.499609 12.4664C0.499609 12.7439 0.722739 12.9699 0.999718 12.9699Z" fill="#0266FF" stroke="#0266FF" stroke-width="0.2"/>
</svg>
